# xmcd
#
# Track frame offsets: 
#        150
#        15213
#        30160
#        53471
#        74032
#        88336
#        101033
#        115404
#        131933
#        143353
#        162560
#
# Disc length: 2396 seconds
#
# Revision: 0
# Processed by: cddbd v1.5.2PL0 Copyright (c) Steve Scherf et al.
# Submitted via: ExactAudioCopy v0.99pb3
#
DISCID=90095a0b
DTITLE=North of Nashville - Danny Bpy Sings With North of Nashville
DYEAR=1900
DGENRE=Country Western
TTITLE0=Glendale Train
TTITLE1=Blue Eyes Crying in the Rain
TTITLE2=Mama Don't Allow
TTITLE3=T for Texas
TTITLE4=Black Mountain Rag
TTITLE5=Rocky Top
TTITLE6=Wild Side of Life
TTITLE7=Mountain Dew
TTITLE8=Folsom Prison Blues
TTITLE9=Green, Green Grass of Home
TTITLE10=Orange Blossom Special
EXTD=
EXTT0=
EXTT1=
EXTT2=
EXTT3=
EXTT4=
EXTT5=
EXTT6=
EXTT7=
EXTT8=
EXTT9=
EXTT10=
PLAYORDER=
